<svg width="16" height="16" viewBox="0 0 16 16" fill="none" xmlns="http://www.w3.org/2000/svg">
<path fill-rule="evenodd" clip-rule="evenodd" d="M0 3C0 1.34315 1.34315 0 3 0H9C10.6569 0 12 1.34315 12 3V4H13C14.6569 4 16 5.34315 16 7V13C16 14.6569 14.6569 16 13 16H7C5.34315 16 4 14.6569 4 13V12H3C1.34315 12 0 10.6569 0 9V3ZM4 10V7C4 5.34315 5.34315 4 7 4H10V3C10 2.44772 9.55229 2 9 2H3C2.44772 2 2 2.44772 2 3V9C2 9.55229 2.44772 10 3 10H4ZM6 7C6 6.44772 6.44772 6 7 6H13C13.5523 6 14 6.44772 14 7V13C14 13.5523 13.5523 14 13 14H7C6.44772 14 6 13.5523 6 13V7Z" fill="white" fill-opacity="0.565"/>
</svg>
