<svg width="11" height="11" viewBox="0 0 11 11" fill="none" xmlns="http://www.w3.org/2000/svg">
<path fill-rule="evenodd" clip-rule="evenodd" d="M0 9V4.60001C0 4.04772 0.447715 3.60001 1 3.60001C1.55228 3.60001 2 4.04772 2 4.60001V7.58579L7.58579 2H4.60001C4.04772 2 3.60001 1.55228 3.60001 1C3.60001 0.447715 4.04772 0 4.60001 0H9H9.60001H9.88284H10V0.00952194C10.3403 0.0654457 10.6 0.36098 10.6 0.717161V1V1.39999V6C10.6 6.55228 10.1523 7 9.60001 7C9.04772 7 8.60001 6.55228 8.60001 6V3.81421L3.81421 8.60001H6C6.55228 8.60001 7 9.04772 7 9.60001C7 10.1523 6.55228 10.6 6 10.6H1.39999H1H0.717161C0.360981 10.6 0.0654458 10.3403 0.00952196 10H0V9.88284V9.60001V9Z" fill="white" fill-opacity="0.565"/>
</svg>
