<svg width="14" height="14" viewBox="0 0 14 14" fill="none" xmlns="http://www.w3.org/2000/svg">
<path fill-rule="evenodd" clip-rule="evenodd" d="M9 5.5C9 7.433 7.433 9 5.5 9C3.567 9 2 7.433 2 5.5C2 3.567 3.567 2 5.5 2C7.433 2 9 3.567 9 5.5ZM8.56647 10.0665C7.69037 10.656 6.63536 11 5.5 11C2.46243 11 0 8.53757 0 5.5C0 2.46243 2.46243 0 5.5 0C8.53757 0 11 2.46243 11 5.5C11 6.6796 10.6286 7.77247 9.99648 8.66808L13.2348 11.9064C13.6253 12.2969 13.6253 12.9301 13.2348 13.3206C12.8443 13.7111 12.2111 13.7111 11.8206 13.3206L8.56647 10.0665Z" fill="white" fill-opacity="0.565"/>
</svg>
