<svg width="13" height="12" viewBox="0 0 13 12" fill="none" xmlns="http://www.w3.org/2000/svg">
<path fill-rule="evenodd" clip-rule="evenodd" d="M5.21554 0L12.1092 1.21554L11.0057 7.47393L9.86602 5.5L8.99999 4L8.13397 5.5L7.02172 7.42647L6.88268 7.40195L4.98482 7.0673L4.00001 6.89365H4L5.21554 0ZM9.57734 7L10.1411 7.9765L12.4641 12H5.5359L8.06973 7.61126L8.42264 7L8.99999 6L9.57734 7ZM3.67042 3.00408C3.61395 3.00137 3.55714 3 3.5 3C1.567 3 0 4.567 0 6.5C0 8.433 1.567 10 3.5 10C4.75571 10 5.85697 9.33872 6.47453 8.34541L3.82636 7.87846L2.84155 7.70481L3.0152 6.72001L3.67042 3.00408Z" fill="white" fill-opacity="0.565"/>
</svg>
